HIERARCHY
ROOT Character1_Hips
{
  OFFSET -24.455 95.4941 -14.2154
  CHANNELS 6 Xposition Yposition Zposition Zrotation Xrotation Yrotation
  JOINT Character1_Spine
  {
    OFFSET 0 8.754 -1.339
    CHANNELS 3 Zrotation Xrotation Yrotation
    JOINT Character1_Spine1
    {
      OFFSET 0 10.855 -0.645
      CHANNELS 3 Zrotation Xrotation Yrotation
      JOINT Character1_LeftShoulder
      {
        OFFSET 1.467 27.745 1.178
        CHANNELS 3 Zrotation Xrotation Yrotation
        JOINT Character1_LeftArm
        {
          OFFSET 18.486 -1.858 0.275
          CHANNELS 3 Zrotation Xrotation Yrotation
          JOINT Character1_LeftForeArm
          {
            OFFSET 32.391 -1.079 3.409
            CHANNELS 3 Zrotation Xrotation Yrotation
            JOINT Character1_LeftHand
            {
              OFFSET 28.678 -2.281 2.112
              CHANNELS 3 Zrotation Xrotation Yrotation
              End Site
              {
                OFFSET -0.000241878 -0.00028536 -9.11487e-005
              }
            }
            JOINT L_Radius
            {
              OFFSET -8.94447e-005 -0.392541 -0.0893675
              CHANNELS 3 Zrotation Xrotation Yrotation
              End Site
              {
                OFFSET 0 0 0
              }
            }
          }
          JOINT L_Humerus
          {
            OFFSET 42.9881 15.7281 -23.1008
            CHANNELS 3 Zrotation Xrotation Yrotation
            End Site
            {
              OFFSET 0 0 0
            }
          }
        }
        JOINT L_Shoulder
        {
          OFFSET 3.24498e-005 -0.000608592 -0.000527677
          CHANNELS 3 Zrotation Xrotation Yrotation
          End Site
          {
            OFFSET 0 0 0
          }
        }
      }
      JOINT Character1_RightShoulder
      {
        OFFSET -1.467 27.745 1.178
        CHANNELS 3 Zrotation Xrotation Yrotation
        JOINT Character1_RightArm
        {
          OFFSET -18.486 -1.858 0.275
          CHANNELS 3 Zrotation Xrotation Yrotation
          JOINT Character1_RightForeArm
          {
            OFFSET -32.391 -1.079 3.409
            CHANNELS 3 Zrotation Xrotation Yrotation
            JOINT Character1_RightHand
            {
              OFFSET -28.678 -2.281 2.112
              CHANNELS 3 Zrotation Xrotation Yrotation
              End Site
              {
                OFFSET 0.000589556 -0.000254961 0.000258925
              }
            }
            JOINT R_Radius
            {
              OFFSET 0.000437123 -0.392512 -0.0890171
              CHANNELS 3 Zrotation Xrotation Yrotation
              End Site
              {
                OFFSET 0 0 0
              }
            }
          }
          JOINT R_Humerus
          {
            OFFSET -42.9874 15.7281 -23.1005
            CHANNELS 3 Zrotation Xrotation Yrotation
            End Site
            {
              OFFSET 0 0 0
            }
          }
        }
        JOINT R_Shoulder
        {
          OFFSET -3.24498e-005 -0.000608592 -0.000527677
          CHANNELS 3 Zrotation Xrotation Yrotation
          End Site
          {
            OFFSET 0 0 0
          }
        }
      }
      JOINT Character1_Neck
      {
        OFFSET 0 30.836 0.626
        CHANNELS 3 Zrotation Xrotation Yrotation
        JOINT Character1_Head
        {
          OFFSET 0 8.074 3.498
          CHANNELS 3 Zrotation Xrotation Yrotation
          End Site
          {
            OFFSET 0 -0.00153379 1.54668e-005
          }
        }
        JOINT Neck
        {
          OFFSET 0.294592 -0.0165676 0.920615
          CHANNELS 3 Zrotation Xrotation Yrotation
          End Site
          {
            OFFSET 0 0 0
          }
        }
      }
      JOINT Torso
      {
        OFFSET 0 -0.000828813 -0.000380861
        CHANNELS 3 Zrotation Xrotation Yrotation
        End Site
        {
          OFFSET 0 0 0
        }
      }
    }
    JOINT Spine
    {
      OFFSET 0.027384 -0.0285983 -0.124144
      CHANNELS 3 Zrotation Xrotation Yrotation
      End Site
      {
        OFFSET 0 0 0
      }
    }
  }
  JOINT Character1_RightUpLeg
  {
    OFFSET -9.035 -4.63425 1.845
    CHANNELS 3 Zrotation Xrotation Yrotation
    JOINT Character1_RightLeg
    {
      OFFSET -0.919521 -40.345 1.155
      CHANNELS 3 Zrotation Xrotation Yrotation
      JOINT Character1_RightFoot
      {
        OFFSET 1.95452 -45.2655 -4.18888
        CHANNELS 3 Zrotation Xrotation Yrotation
        JOINT Character1_RightToeBase
        {
          OFFSET 1.87056 -6.69517 14.7145
          CHANNELS 3 Zrotation Xrotation Yrotation
          End Site
          {
            OFFSET 0 0 0
          }
        }
        JOINT R_Foot
        {
          OFFSET 8 -7.75529 4.18888
          CHANNELS 3 Zrotation Xrotation Yrotation
          End Site
          {
            OFFSET 0 0 0
          }
        }
      }
      JOINT R_Tibia
      {
        OFFSET 0 0 0
        CHANNELS 3 Zrotation Xrotation Yrotation
        End Site
        {
          OFFSET 0 0 0
        }
      }
    }
    JOINT R_Femur
    {
      OFFSET 0 0 0
      CHANNELS 3 Zrotation Xrotation Yrotation
      End Site
      {
        OFFSET 0 0 0
      }
    }
  }
  JOINT Character1_LeftUpLeg
  {
    OFFSET 9.035 -4.63425 1.845
    CHANNELS 3 Zrotation Xrotation Yrotation
    JOINT Character1_LeftLeg
    {
      OFFSET 0.919521 -40.345 1.155
      CHANNELS 3 Zrotation Xrotation Yrotation
      JOINT Character1_LeftFoot
      {
        OFFSET -1.95452 -45.2655 -4.18888
        CHANNELS 3 Zrotation Xrotation Yrotation
        JOINT Character1_LeftToeBase
        {
          OFFSET -1.87056 -6.69517 14.7145
          CHANNELS 3 Zrotation Xrotation Yrotation
          End Site
          {
            OFFSET 0 0 0
          }
        }
        JOINT L_Foot
        {
          OFFSET -8 -7.75529 4.18888
          CHANNELS 3 Zrotation Xrotation Yrotation
          End Site
          {
            OFFSET 0 0 0
          }
        }
      }
      JOINT L_Tibia
      {
        OFFSET 0 0 0
        CHANNELS 3 Zrotation Xrotation Yrotation
        End Site
        {
          OFFSET 0 0 0
        }
      }
    }
    JOINT L_Femur
    {
      OFFSET 0 0 0
      CHANNELS 3 Zrotation Xrotation Yrotation
      End Site
      {
        OFFSET 0 0 0
      }
    }
  }
  JOINT Pelvis
  {
    OFFSET 0 0 0
    CHANNELS 3 Zrotation Xrotation Yrotation
    End Site
    {
      OFFSET 0 0 0
    }
  }
}
MOTION
Frames:	8
Frame Time:	0.00833333
-24.455 95.4941 -14.2154 -0.459979 -1.48555 16.4297 -4.96962e-017 0 6.36111e-015 1.33655 4.87897 -0.994783 -8.80501 5.01328 -15.1549 -64.3297 29.3808 2.32639 0.000212616 -0.000339078 -22.1943 -9.46009 12.2686 9.48376 -2.16325e-016 20 -1.69234e-015 83 0 -85 -2.47238e-015 0 -2.98177e-016 10.6273 4.07851 13.1238 57.1143 18.1315 1.21704 -8.8681e-005 7.25767e-006 24.014 13.778 6.04381 -8.28959 -2.02293e-015 20 -3.38468e-015 -83 0 85 1.59028e-015 1.59028e-015 3.18055e-015 1.98785e-016 3.97569e-016 -0 0.432492 -1.90498 -6.78635 2.67435 -8.89353 -1.70414 1.98785e-016 3.97569e-016 -0 0.435677 1.62887 -0.318629 -4.16238 0.163002 -17.2959 0.048724 15.4093 0.286123 4.44962 -12.8092 -3.25403 -0.00104079 -0.000946259 -0.00160415 1.40741e-018 -7.76503e-019 -0 1.26725e-015 1.59028e-015 -1.98785e-016 6.83322e-017 7.95139e-016 -0 5.3586 -7.06193 -0.695856 -0.112386 20.1618 -0.0254246 -4.57202 -11.8198 -6.00117 -0.0171309 -0.142912 0.00699742 -1.35888e-018 -1.55301e-018 -1.59028e-015 -0 -1.59028e-015 -0 7.95139e-016 -7.95139e-016 -6.36111e-015 -4.96962e-017 0 6.36111e-015 
-24.5258 95.5052 -14.1521 -0.411611 -1.48533 16.4582 -4.96962e-017 -1.98785e-016 -3.18055e-015 1.20588 4.8517 -0.893054 -8.84566 4.91807 -15.0562 -64.1563 28.8934 2.10001 0.000210705 -0.000338292 -22.5177 -8.88934 12.4464 9.70591 -5.78814e-016 20 1.69234e-015 83 4.77083e-015 -85 -1.49089e-016 0 -0 10.7003 4.03503 13.0416 56.8926 18.3206 1.44316 -8.86519e-005 7.27057e-006 23.7846 13.7709 6.54042 -8.41588 1.44411e-015 20 5.07701e-015 -83 2.38542e-015 85 -2.38542e-015 0 -6.36111e-015 -1.98785e-016 7.95139e-016 -3.18055e-015 0.509796 -1.84298 -6.90802 2.73989 -8.78304 -1.71089 -1.98785e-016 7.95139e-016 -3.18055e-015 0.392963 1.61868 -0.286411 -4.14813 0.242699 -17.361 0.0490513 15.3461 0.286036 4.40992 -12.8239 -3.22654 -0.00104079 -0.000946259 -0.00160415 -1.94126e-019 0 -0 1.98785e-016 -3.18055e-015 -9.93923e-017 2.11209e-016 -7.95139e-016 -0 5.36178 -6.94549 -0.752139 -0.11246 20.0054 -0.0253992 -4.62873 -11.772 -5.98288 -0.0171319 -0.134916 0.00699741 5.82377e-019 3.88251e-019 -3.18055e-015 -0 -1.59028e-015 -0 2.38542e-015 -7.95139e-016 -0 -4.96962e-017 -1.98785e-016 -3.18055e-015 
-24.5966 95.5163 -14.0889 -0.36323 -1.48511 16.4867 -4.96962e-017 1.98785e-016 -6.36111e-015 1.07538 4.82497 -0.791338 -8.88615 4.82208 -14.9576 -63.9873 28.4055 1.87599 0.000208798 -0.000337495 -22.841 -8.32092 12.624 9.92964 5.78814e-016 20 -1.69234e-015 83 1.59028e-015 -85 -2.70844e-015 -7.95139e-016 3.97569e-016 10.7729 3.99087 12.9598 56.6693 18.5095 1.66972 -8.86228e-005 7.28333e-006 23.5552 13.7649 7.03704 -8.5421 3.75937e-015 20 -1.69234e-015 -83 5.96354e-016 85 -7.95139e-016 1.59028e-015 -0 -8.82781e-032 -7.95139e-016 -6.36111e-015 0.587038 -1.78134 -7.0297 2.80726 -8.66584 -1.71525 -8.82781e-032 -7.95139e-016 -6.36111e-015 0.350123 1.60799 -0.254449 -4.1336 0.321391 -17.4261 0.049377 15.2831 0.28595 4.3704 -12.8381 -3.19906 -0.00104079 -0.000946259 -0.00160415 8.493e-020 -3.88251e-019 1.59028e-015 5.2181e-016 1.59028e-015 2.98177e-016 -5.46658e-016 3.97569e-016 -0 5.36484 -6.82864 -0.808405 -0.112534 19.8483 -0.025374 -4.6852 -11.724 -5.96441 -0.0171328 -0.126951 0.00699741 -8.73565e-019 1.94126e-019 -1.59028e-015 7.95139e-016 0 -3.18055e-015 5.96354e-016 -7.95139e-016 3.18055e-015 -4.96962e-017 1.98785e-016 -6.36111e-015 
-24.6673 95.5274 -14.0256 -0.314835 -1.48489 16.5153 -0 0 6.36111e-015 0.944758 4.79758 -0.689586 -8.92619 4.72652 -14.859 -63.8226 27.917 1.65421 0.000206896 -0.000336687 -23.1643 -7.75484 12.8014 10.1548 -5.78814e-016 20 1.69234e-015 83 1.59028e-015 -85 4.74598e-015 -7.95139e-016 3.97569e-016 10.8456 3.94719 12.8777 56.4446 18.6981 1.89672 -8.85936e-005 7.29599e-006 23.3259 13.76 7.53374 -8.66825 -3.18055e-015 20 -0 -83 1.98785e-016 85 -7.95139e-016 1.59028e-015 6.36111e-015 1.98785e-016 3.97569e-016 -0 0.664534 -1.71889 -7.1515 2.87105 -8.56206 -1.72439 1.98785e-016 3.97569e-016 -0 0.307569 1.59828 -0.221975 -4.11906 0.400995 -17.4911 0.0497086 15.219 0.285863 4.33109 -12.8521 -3.17157 -0.00104079 -0.000946259 -0.00160415 -3.41236e-021 6.06643e-021 7.95139e-016 7.45443e-017 1.59028e-015 -9.93923e-017 9.93923e-017 7.95139e-016 -0 5.36781 -6.71036 -0.86465 -0.112609 19.6891 -0.0253487 -4.74153 -11.6755 -5.94578 -0.0171338 -0.118934 0.00699741 4.85314e-020 4.85314e-020 -1.59028e-015 -3.97569e-016 -3.18055e-015 3.18055e-015 1.39149e-015 0 -3.18055e-015 -0 0 6.36111e-015 
-24.7381 95.5384 -13.9624 -0.266761 -1.48354 16.5437 2.48481e-016 -1.98785e-016 -0 0.814194 4.77041 -0.58781 -8.96597 4.6305 -14.7605 -63.6621 27.428 1.43464 0.000204998 -0.000335869 -23.4877 -7.19114 12.9786 10.3816 -2.16909e-015 20 1.69234e-015 83 -1.59028e-015 -85 2.13694e-015 -7.95139e-016 3.97569e-016 10.918 3.90312 12.7958 56.2184 18.8863 2.12416 -8.85644e-005 7.30852e-006 23.0966 13.7561 8.03047 -8.79432 2.60174e-015 20 1.69234e-015 -83 1.59028e-015 85 2.38542e-015 -1.59028e-015 3.18055e-015 -1.76556e-031 -7.95139e-016 -1.27222e-014 0.741975 -1.65697 -7.27327 2.9259 -8.49182 -1.74544 -1.76556e-031 -7.95139e-016 -1.27222e-014 0.265707 1.59103 -0.188219 -4.10417 0.48086 -17.5562 0.0479268 15.1538 0.285774 4.29198 -12.8654 -3.14413 -0.00104079 -0.000946259 -0.00160415 -4.17067e-021 1.81993e-020 7.95139e-016 1.68967e-015 3.18055e-015 3.97569e-016 6.83322e-016 3.97569e-016 -3.97569e-016 5.37056 -6.59123 -0.920887 -0.112684 19.5283 -0.0253233 -4.79767 -11.6263 -5.92697 -0.0171348 -0.110982 0.00699741 1.91092e-019 4.85314e-020 -1.59028e-015 3.97569e-016 -3.18055e-015 -0 -1.19271e-015 -7.95139e-016 6.36111e-015 2.48481e-016 -1.98785e-016 -0 
-24.7946 95.5455 -13.905 -0.218277 -1.46326 16.5397 9.93923e-017 -1.98785e-016 -3.18055e-015 0.690143 4.76599 -0.474111 -9.04023 4.59633 -14.6661 -63.4667 27.1222 1.26666 0.000201695 -0.000334414 -24.0524 -6.40893 12.4084 9.96244 1.59028e-015 20 -0 83 0 -85 1.39149e-015 0 -0 10.9785 3.87888 12.722 56.065 18.8965 2.29827 -8.8548e-005 7.31547e-006 22.9684 13.735 8.38822 -8.7769 -4.917e-015 20 5.07701e-015 -83 -3.18055e-015 85 -1.59028e-015 0 3.18055e-015 1.98785e-016 -3.97569e-016 -6.36111e-015 0.779154 -1.69623 -7.37711 2.96697 -8.46081 -1.7868 1.98785e-016 -3.97569e-016 -6.36111e-015 0.22512 1.5863 -0.151864 -4.11256 0.513238 -17.59 0.0467305 15.1331 0.285747 4.26024 -12.8921 -3.11671 -0.00104079 -0.000946259 -0.00160415 7.05222e-020 0 -0 -1.963e-015 0 -2.98177e-016 -4.53478e-016 -7.95139e-016 1.98785e-016 5.35742 -6.49994 -0.961947 -0.112747 19.3929 -0.0253022 -4.8422 -11.5911 -5.88856 -0.0171354 -0.105871 0.00699741 -1.45594e-019 8.493e-020 -0 0 3.18055e-015 -0 3.97569e-016 0 3.18055e-015 9.93923e-017 -1.98785e-016 -3.18055e-015 
-24.8511 95.5526 -13.8477 -0.169791 -1.44297 16.5356 -4.96962e-017 1.98785e-016 -6.36111e-015 0.566121 4.76201 -0.360459 -9.11447 4.56127 -14.5718 -63.2733 26.816 1.09968 0.000198406 -0.000332926 -24.6172 -5.63309 11.8378 9.54655 1.59028e-015 20 -0 83 -1.59028e-015 -85 1.31695e-015 7.95139e-016 -0 11.0388 3.85382 12.6484 55.9113 18.9065 2.47247 -8.85317e-005 7.32239e-006 22.8402 13.7131 8.74591 -8.75923 -1.73644e-015 20 5.07701e-015 -83 0 85 1.59028e-015 0 -0 -2.20695e-032 -3.97569e-016 -3.18055e-015 0.816263 -1.7357 -7.48092 2.99825 -8.45818 -1.8425 -2.20695e-032 -3.97569e-016 -3.18055e-015 0.185426 1.58342 -0.113693 -4.12072 0.544275 -17.6238 0.0457114 15.1131 0.28572 4.22855 -12.9183 -3.08932 -0.00104079 -0.000946259 -0.00160415 1.51661e-021 -1.21329e-020 -0 7.45443e-017 1.59028e-015 -0 6.33626e-016 0 -0 5.34415 -6.40834 -1.00299 -0.112811 19.2567 -0.0252811 -4.8866 -11.5555 -5.85003 -0.017136 -0.100775 0.0069974 -1.21329e-020 0 -0 -3.97569e-016 -1.59028e-015 -0 1.39149e-015 -7.95139e-016 -0 -4.96962e-017 1.98785e-016 -6.36111e-015 
-24.9075 95.5596 -13.7903 -0.121346 -1.42269 16.5297 -1.49089e-016 -1.98785e-016 -3.18055e-015 0.441956 4.75802 -0.246757 -9.18851 4.52663 -14.4775 -63.0818 26.5097 0.933601 0.000195132 -0.000331407 -25.1819 -4.86355 11.2669 9.13376 -9.41302e-016 20 5.07701e-015 83 0 -85 1.73937e-015 1.59028e-015 -3.97569e-016 11.0991 3.82919 12.5746 55.7579 18.9164 2.64652 -8.85153e-005 7.32927e-006 22.7121 13.6904 9.10352 -8.74139 2.60174e-015 20 1.69234e-015 -83 5.1684e-015 85 1.59028e-015 0 -3.18055e-015 -1.98785e-016 0 -0 0.853137 -1.7761 -7.58478 3.02753 -8.47926 -1.89811 -1.98785e-016 0 -0 0.145588 1.58273 -0.0760776 -4.1289 0.576253 -17.6576 0.0448581 15.0922 0.285692 4.19695 -12.9445 -3.06198 -0.00104079 -0.000946259 -0.00160415 6.7489e-020 4.2465e-020 -7.95139e-016 -1.49089e-016 3.18055e-015 5.96354e-016 3.85145e-016 7.95139e-016 1.98785e-016 5.33076 -6.31666 -1.04407 -0.111377 19.1202 -0.0252601 -4.9309 -11.5197 -5.81138 -0.0171367 -0.0956605 0.0069974 1.09196e-019 0 -1.59028e-015 7.95139e-016 0 -6.36111e-015 0 7.95139e-016 -0 -1.49089e-016 -1.98785e-016 -3.18055e-015 
